<svg width="1920" height="1080" viewBox="0 0 1920 1080" fill="none" xmlns="http://www.w3.org/2000/svg">
<g clip-path="url(#clip0)">
<rect width="2122" height="1592" transform="translate(-101 -85)" fill="white"/>
<g opacity="0.1">
<g filter="url(#filter0_d)">
<path d="M1925.37 -527.301C1932.51 -529.122 1942.11 -523.859 1942.11 -517.179C1942.62 -461.917 1942.11 -338.135 1942.11 -338.135V661.337C1942.11 661.337 1940.27 762.549 1942.11 834.714C1942.72 856.778 1942.62 878.943 1942.82 895.441C1943 896.628 1942.74 897.838 1942.1 898.855C1941.46 899.873 1940.48 900.632 1939.32 900.997C1938.17 901.361 1936.93 901.308 1935.81 900.847C1934.69 900.385 1933.78 899.545 1933.23 898.477C1745.8 659.346 1558.3 420.114 1370.73 180.781C1367.77 176.327 1362.46 172.684 1362.36 166.915C1362.36 -0.996643 1362.36 -167.086 1362.36 -335.2C1362.33 -336.336 1362.63 -337.457 1363.2 -338.439C1363.78 -339.421 1364.62 -340.226 1365.63 -340.766C1551.32 -401.797 1739.67 -464.448 1925.37 -527.301Z" fill="#051121"/>
<path d="M1941.61 -517.179V-517.175C1941.86 -489.547 1941.86 -444.788 1941.8 -406.935C1941.77 -388.008 1941.72 -370.809 1941.68 -358.341C1941.66 -352.107 1941.64 -347.056 1941.63 -343.563C1941.62 -341.817 1941.62 -340.46 1941.61 -339.54L1941.61 -338.494L1941.61 -338.227L1941.61 -338.159L1941.61 -338.143V-338.138C1941.61 -338.138 1941.61 -338.138 1941.64 -338.137C1941.68 -338.137 1941.8 -338.136 1942.11 -338.135L1941.61 -338.137V-338.135L1941.61 661.329L1941.61 661.332V661.337L1941.61 661.346L1941.61 661.401L1941.6 661.62L1941.59 662.482C1941.58 663.241 1941.56 664.364 1941.53 665.819C1941.49 668.727 1941.42 672.963 1941.35 678.272C1941.21 688.889 1941.03 703.797 1940.92 720.96C1940.69 755.285 1940.69 798.636 1941.61 834.726C1942.02 849.69 1942.11 864.694 1942.19 877.951C1942.22 884.239 1942.26 890.135 1942.32 895.447L1942.32 895.481L1942.33 895.514C1942.49 896.583 1942.26 897.672 1941.68 898.589C1941.1 899.506 1940.21 900.191 1939.17 900.52C1938.13 900.849 1937.01 900.801 1936 900.385C1934.99 899.968 1934.17 899.211 1933.67 898.248L1933.65 898.206L1933.62 898.169C1746.19 659.043 1558.7 419.816 1371.14 180.488C1370.38 179.352 1369.48 178.274 1368.57 177.219C1368.37 176.997 1368.18 176.775 1367.99 176.554C1367.26 175.717 1366.54 174.889 1365.87 174.033C1364.18 171.876 1362.91 169.63 1362.86 166.91V165.931V164.947V163.963V162.979V161.996V161.012V160.029V159.045V158.062V157.078V156.095V155.111V154.128V153.145V152.161V151.178V150.195V149.212V148.229V147.246V146.263V145.28V144.297V143.314V142.331V141.348V140.365V139.382V138.4V137.417V136.434V135.452V134.469V133.486V132.504V131.521V130.539V129.557V128.574V127.592V126.61V125.627V124.645V123.663V122.681V121.699V120.716V119.734V118.752V117.77V116.788V115.806V114.825V113.843V112.861V111.879V110.897V109.916V108.934V107.952V106.971V105.989V105.007V104.026V103.044V102.063V101.081V100.1V99.1184V98.1371V97.1557V96.1744V95.1931V94.2119V93.2307V92.2495V91.2682V90.2871V89.306V88.325V87.3439V86.3629V85.3818V84.4009V83.4199V82.439V81.4581V80.4773V79.4965V78.5156V77.5349V76.5541V75.5734V74.5927V73.6119V72.6313V71.6507V70.67V69.6895V68.7089V67.7284V66.7479V65.7674V64.7869V63.8065V62.8261V61.8457V60.8654V59.885V58.9047V57.9244V56.9441V55.9639V54.9836V54.0034V53.0233V52.0431V51.0629V50.0828V49.1027V48.1226V47.1426V46.1625V45.1825V44.2025V43.2225V42.2426V41.2626V40.2827V39.3029V38.3229V37.3431V36.3633V35.3834V34.4036V33.4239V32.4441V31.4644V30.4846V29.5049V28.5252V27.5455V26.5659V25.5862V24.6066V23.627V22.6474V21.6678V20.6883V19.7087V18.7292V17.7497V16.7702V15.7907V14.8113V13.8318V12.8524V11.873V10.8936V9.91418V8.93481V7.95544V6.97607V5.99677V5.01746V4.03815V3.05884V2.07953V1.10028V0.121033V-0.858215V-1.83746V-2.81665V-3.7959V-4.77509V-5.75427V-6.73346V-7.71259V-8.69177V-9.6709V-10.65V-11.6292V-12.6082V-13.5873V-14.5664V-15.5455V-16.5246V-17.5036V-18.4827V-19.4617V-20.4408V-21.4198V-22.3988V-23.3778V-24.3568V-25.3358V-26.3148V-27.2937V-28.2727V-29.2516V-30.2306V-31.2095V-32.1885V-33.1674V-34.1463V-35.1252V-36.1042V-37.0831V-38.062V-39.0409V-40.0197V-40.9986V-41.9775V-42.9564V-43.9352V-44.9141V-45.8929V-46.8718V-47.8506V-48.8295V-49.8083V-50.7872V-51.766V-52.7448V-53.7237V-54.7025V-55.6813V-56.6601V-57.6389V-58.6177V-59.5966V-60.5754V-61.5542V-62.533V-63.5118V-64.4906V-65.4694V-66.4482V-67.427V-68.4058V-69.3846V-70.3634V-71.3422V-72.321V-73.2998V-74.2786V-75.2574V-76.2362V-77.215V-78.1938V-79.1726V-80.1514V-81.1302V-82.109V-83.0878V-84.0666V-85.0454V-86.0243V-87.0031V-87.9819V-88.9607V-89.9395V-90.9184V-91.8972V-92.8761V-93.8549V-94.8337V-95.8126V-96.7915V-97.7703V-98.7492V-99.7281V-100.707V-101.686V-102.665V-103.644V-104.622V-105.601V-106.58V-107.559V-108.538V-109.517V-110.496V-111.475V-112.454V-113.433V-114.412V-115.391V-116.37V-117.349V-118.328V-119.307V-120.286V-121.265V-122.244V-123.223V-124.202V-125.181V-126.16V-127.139V-128.118V-129.097V-130.076V-131.056V-132.035V-133.014V-133.993V-134.972V-135.951V-136.93V-137.91V-138.889V-139.868V-140.847V-141.827V-142.806V-143.785V-144.764V-145.744V-146.723V-147.702V-148.682V-149.661V-150.64V-151.62V-152.599V-153.578V-154.558V-155.537V-156.517V-157.496V-158.476V-159.455V-160.435V-161.414V-162.394V-163.373V-164.353V-165.333V-166.312V-167.292V-168.271V-169.251V-170.231V-171.21V-172.19V-173.17V-174.15V-175.129V-176.109V-177.089V-178.069V-179.049V-180.028V-181.008V-181.988V-182.968V-183.948V-184.928V-185.908V-186.888V-187.868V-188.848V-189.828V-190.808V-191.788V-192.768V-193.749V-194.729V-195.709V-196.689V-197.669V-198.65V-199.63V-200.61V-201.59V-202.571V-203.551V-204.532V-205.512V-206.492V-207.473V-208.453V-209.434V-210.414V-211.395V-212.376V-213.356V-214.337V-215.317V-216.298V-217.279V-218.26V-219.24V-220.221V-221.202V-222.183V-223.164V-224.144V-225.125V-226.106V-227.087V-228.068V-229.049V-230.03V-231.011V-231.993V-232.974V-233.955V-234.936V-235.917V-236.899V-237.88V-238.861V-239.842V-240.824V-241.805V-242.787V-243.768V-244.75V-245.731V-246.713V-247.694V-248.676V-249.658V-250.639V-251.621V-252.603V-253.584V-254.566V-255.548V-256.53V-257.512V-258.494V-259.476V-260.458V-261.44V-262.422V-263.404V-264.386V-265.368V-266.35V-267.333V-268.315V-269.297V-270.28V-271.262V-272.244V-273.227V-274.209V-275.192V-276.174V-277.157V-278.14V-279.122V-280.105V-281.088V-282.07V-283.053V-284.036V-285.019V-286.002V-286.985V-287.968V-288.951V-289.934V-290.917V-291.9V-292.883V-293.867V-294.85V-295.833V-296.817V-297.8V-298.783V-299.767V-300.75V-301.734V-302.717V-303.701V-304.685V-305.668V-306.652V-307.636V-308.62V-309.604V-310.588V-311.572V-312.556V-313.54V-314.524V-315.508V-316.492V-317.476V-318.46V-319.445V-320.429V-321.414V-322.398V-323.382V-324.367V-325.352V-326.336V-327.321V-328.305V-329.29V-330.275V-331.26V-332.245V-333.23V-334.215L1362.86 -335.2L1362.86 -335.211C1362.84 -336.254 1363.1 -337.283 1363.63 -338.186C1364.16 -339.076 1364.91 -339.809 1365.82 -340.305C1551.5 -401.33 1739.83 -463.974 1925.51 -526.821C1928.92 -527.685 1932.97 -526.864 1936.16 -524.996C1939.38 -523.12 1941.61 -520.27 1941.61 -517.179Z" stroke="black"/>
</g>
<path d="M736.058 -124.68L968.611 -201.703C975.042 -204.435 978.105 -196.844 981.576 -192.998C1291.65 202.742 1601.75 598.414 1911.89 994.019C1914.95 998.675 1921.18 1003.03 1918.93 1009.3C1732.01 1072.86 1544.69 1135.51 1357.46 1198.87C1356.19 1199.56 1354.71 1199.77 1353.3 1199.45C1351.89 1199.13 1350.65 1198.32 1349.8 1197.15C1295.39 1126.3 1241.18 1054.14 1186.46 982.886L736.058 1134.6C735.161 1135.03 734.164 1135.2 733.177 1135.1C732.189 1135 731.248 1134.63 730.457 1134.03C729.666 1133.44 729.056 1132.64 728.694 1131.72C728.331 1130.8 728.23 1129.8 728.402 1128.83C727.483 1032.99 728.402 939.87 728.402 844.124C728.402 836.533 729.933 834.002 738.61 830.966C829.773 799.287 911.238 771.453 1002.5 739.875C909.095 616.801 827.732 508.706 734.323 385.632C727.176 374.802 728.402 374.904 728.402 372.576C728.402 365.592 728.402 342.212 728.402 342.212V125.314C728.402 125.314 728.402 77.7444 728.402 54.4656C728.402 6.18739 728.402 -31.0588 728.402 -79.8431C728.402 -88.7497 728.402 -102.413 728.402 -112.029C728.402 -121.644 730.341 -122.453 736.058 -124.68Z" fill="#051121"/>
<path d="M633.977 -88.3444C647.861 -93.0001 657.252 -86.3201 657.252 -76.1989V53.7576C657.252 53.7576 656.742 171.063 657.252 338.771C657.252 411.239 657.252 584.616 657.252 584.616C657.252 584.616 657.252 639.27 657.252 666.699C657.763 775.198 657.252 998.574 657.252 998.574C657.252 998.574 656.64 1092.4 657.252 1137.84C658.069 1213.25 657.252 1279.54 657.252 1343.61C657.252 1348.97 649.29 1349.78 647.044 1345.33C463.289 1112.54 277.696 878.739 94.6555 645.95C94.6555 632.489 94.6555 600.911 94.6555 600.911V440.287C94.6555 440.287 94.6555 327.334 94.6555 272.477C94.6555 244.543 94.6555 172.884 94.6555 172.884V150.82C94.6555 150.82 94.6555 123.29 94.6555 111.145C94.6555 95.1534 95.5743 93.534 101.699 90.2952C283.821 29.3654 451.345 -27.2122 633.977 -88.3444Z" fill="#051121"/>
<path d="M-309.2 272.276C-307.832 271.457 -306.193 271.211 -304.642 271.59C-303.092 271.97 -301.756 272.944 -300.931 274.3C6.1452 662.753 316.692 1051.31 623.768 1439.76C624.855 1440.32 625.718 1441.23 626.215 1442.34C626.713 1443.45 626.816 1444.69 626.508 1445.87C626.2 1447.04 625.498 1448.08 624.518 1448.81C623.538 1449.54 622.338 1449.92 621.114 1449.88C435.725 1512.23 250.234 1574.51 64.6407 1636.72C58.7198 1639.65 55.5551 1632.67 52.5945 1629.03L-305.218 1166.59C-307.668 1163.15 -311.548 1160.11 -311.343 1155.66C-310.425 862.748 -312.058 569.941 -311.343 277.134C-311.224 275.316 -310.465 273.597 -309.2 272.276Z" fill="#051121"/>
</g>
</g>
<defs>
<filter id="filter0_d" x="1358.36" y="-527.665" width="588.518" height="1436.9" filterUnits="userSpaceOnUse" color-interpolation-filters="sRGB">
<feFlood flood-opacity="0" result="BackgroundImageFix"/>
<feColorMatrix in="SourceAlpha" type="matrix" values="0 0 0 0 0 0 0 0 0 0 0 0 0 0 0 0 0 0 127 0"/>
<feOffset dy="4"/>
<feGaussianBlur stdDeviation="2"/>
<feColorMatrix type="matrix" values="0 0 0 0 0 0 0 0 0 0 0 0 0 0 0 0 0 0 0.25 0"/>
<feBlend mode="normal" in2="BackgroundImageFix" result="effect1_dropShadow"/>
<feBlend mode="normal" in="SourceGraphic" in2="effect1_dropShadow" result="shape"/>
</filter>
<clipPath id="clip0">
<rect width="2122" height="1592" fill="white" transform="translate(-101 -85)"/>
</clipPath>
</defs>
</svg>
